<?xml version="1.0" encoding="utf-8"?>
<!-- Generator: Adobe Illustrator 15.0.0, SVG Export Plug-In . SVG Version: 6.00 Build 0)  -->
<!DOCTYPE svg PUBLIC "-//W3C//DTD SVG 1.1//EN" "http://www.w3.org/Graphics/SVG/1.1/DTD/svg11.dtd">
<svg version="1.1" id="Layer_1" xmlns="http://www.w3.org/2000/svg" xmlns:xlink="http://www.w3.org/1999/xlink" x="0px" y="0px"
	 width="98.5px" height="39px" viewBox="0 0 98.5 39" enable-background="new 0 0 98.5 39" xml:space="preserve">
<g>
	<rect x="55.5" y="9.754" fill="#FAD413" width="16.715" height="16.715"/>
	<circle fill="#DE7070" cx="84.75" cy="18.75" r="9.75"/>
</g>
<g id="Shape">
	<g transform="translate(8.826087, 29.000000)">
		<path fill="#F6ED30" d="M6.055,1.459v-7.678l-1.96-1.96L1.066-5.15v5.82c0,0.465,0.376,0.842,0.84,0.842h4.345V1.459H6.055
			L6.055,1.459z"/>
		<path fill="#CBDA29" d="M10.573,1.459v-11.803L6.448-6.219v7.678H6.252v0.053h4.518V1.459H10.573z"/>
		<path fill="#80BE41" d="M13.029-12.8l-2.062,2.063V1.459H10.77v0.053h2.259c0.703,0,1.392-0.064,2.062-0.182v-12.067L13.029-12.8
			L13.029-12.8z"/>
		<path fill="#1CA4C9" d="M18.619-11.74l-2.265,2.265l-0.87-0.869V1.258c1.497-0.314,2.891-0.908,4.125-1.725v-10.281L18.619-11.74
			L18.619-11.74z"/>
		<path fill="#2A3990" d="M20.004-10.759V-0.74c3.018-2.174,4.988-5.716,4.988-9.712c0-1.568-0.306-3.064-0.857-4.438L20.004-10.759
			L20.004-10.759z"/>
	</g>
	<g>
		<path fill="#32195C" d="M10.732,21.583V7.479h11.123c4.424,0,8.246,2.585,10.037,6.326l1.248-1.247
			c-2.162-4.021-6.409-6.761-11.284-6.761H10.732c-0.446,0-0.874,0.178-1.189,0.493S9.051,7.034,9.051,7.479l0,15.784L10.732,21.583
			L10.732,21.583z"/>
		<path fill="#32195C" d="M35.453,10.982l-6.827,6.826l-1.182-1.182l-2.265,2.265l-3.325-3.325l-6.777,6.778l-2.157-2.157
			L7.37,25.738v1.27l1.682-1.681v4.398c0,0.93,0.752,1.682,1.681,1.682h11.122c7.06,0,12.804-5.744,12.804-12.804
			c0-1.647-0.317-3.221-0.888-4.669l1.682-1.682L35.453,10.982L35.453,10.982z M32.977,18.602c0,6.143-4.979,11.123-11.122,11.123
			H10.732v-6.082l2.189-2.188l2.157,2.157l6.777-6.777l3.325,3.324l2.265-2.265l1.182,1.183l3.831-3.83
			C32.792,16.306,32.977,17.432,32.977,18.602L32.977,18.602z"/>
	</g>
</g>
<text transform="matrix(1 0 0 1 41 24.0122)" font-family="'Montserrat-Regular'" font-size="15">+</text>
</svg>
