<?xml version="1.0" encoding="utf-8"?>
<!-- Generator: Adobe Illustrator 15.0.0, SVG Export Plug-In . SVG Version: 6.00 Build 0)  -->
<!DOCTYPE svg PUBLIC "-//W3C//DTD SVG 1.1//EN" "http://www.w3.org/Graphics/SVG/1.1/DTD/svg11.dtd">
<svg version="1.1" id="Layer_1" xmlns="http://www.w3.org/2000/svg" xmlns:xlink="http://www.w3.org/1999/xlink" x="0px" y="0px"
	 width="64px" height="64px" viewBox="0 0 64 64" enable-background="new 0 0 64 64" xml:space="preserve">
<circle cx="32" cy="34.399" r="7.681"/>
<path d="M24.8,10.4l-4.392,4.799H12.8c-2.64,0-4.8,2.16-4.8,4.801v28.801c0,2.639,2.16,4.799,4.8,4.799h38.4
	c2.639,0,4.8-2.16,4.8-4.799V20c0-2.641-2.161-4.801-4.8-4.801h-7.608L39.2,10.4H24.8z M32,46.4c-6.623,0-12-5.377-12-12
	s5.377-12,12-12s12,5.377,12,12S38.623,46.4,32,46.4z"/>
</svg>
