<?xml version="1.0" encoding="utf-8"?>
<!-- Generator: Adobe Illustrator 15.0.0, SVG Export Plug-In  -->
<!DOCTYPE svg PUBLIC "-//W3C//DTD SVG 1.1//EN" "http://www.w3.org/Graphics/SVG/1.1/DTD/svg11.dtd" [
	<!ENTITY ns_flows "http://ns.adobe.com/Flows/1.0/">
]>
<svg version="1.1"
	 xmlns="http://www.w3.org/2000/svg" xmlns:xlink="http://www.w3.org/1999/xlink" xmlns:a="http://ns.adobe.com/AdobeSVGViewerExtensions/3.0/"
	 x="0px" y="0px" width="64px" height="64px" viewBox="0 0 64 64" overflow="visible" enable-background="new 0 0 64 64"
	 xml:space="preserve">
<defs>
</defs>
<rect opacity="0" width="64" height="64"/>
<path display="none" d="M58.688,36.785l-2.734,2.68c-0.911,0.911-2.005,1.367-3.281,1.367s-2.352-0.456-3.227-1.367l-10.555-10.5
	v25.32c0,1.239-0.446,2.251-1.34,3.035s-1.978,1.157-3.254,1.121h-4.594c-1.276,0.036-2.361-0.337-3.254-1.121
	s-1.34-1.796-1.34-3.035v-25.32l-10.555,10.5c-0.875,0.911-1.959,1.367-3.254,1.367s-2.379-0.456-3.254-1.367l-2.68-2.68
	C4.456,35.874,4,34.789,4,33.531s0.456-2.342,1.367-3.254L28.773,6.871c0.838-0.875,1.905-1.312,3.199-1.312
	c1.294,0,2.397,0.438,3.309,1.312l23.406,23.406C59.562,31.225,60,32.319,60,33.559C60,34.798,59.562,35.874,58.688,36.785z"/>
<path display="none" d="M58.688,33.887L35.281,57.348c-0.948,0.875-2.051,1.312-3.309,1.312s-2.324-0.438-3.199-1.312L5.367,33.887
	C4.456,33.012,4,31.936,4,30.66s0.456-2.37,1.367-3.281l2.68-2.68c0.912-0.875,1.996-1.312,3.254-1.312s2.342,0.438,3.254,1.312
	l10.555,10.555V9.934c0-1.24,0.456-2.315,1.367-3.227s1.987-1.367,3.227-1.367h4.594c1.239,0,2.315,0.456,3.227,1.367
	s1.367,1.987,1.367,3.227v25.32l10.555-10.555c0.911-0.875,1.996-1.312,3.254-1.312s2.343,0.438,3.254,1.312l2.734,2.68
	C59.562,28.327,60,29.42,60,30.66C60,31.936,59.562,33.012,58.688,33.887z"/>
<path display="none" d="M58.633,52.262l-6.398,6.398c-0.875,0.875-1.941,1.312-3.199,1.312s-2.324-0.438-3.199-1.312L32,44.824
	L18.109,58.66c-0.875,0.875-1.941,1.312-3.199,1.312s-2.324-0.438-3.199-1.312l-6.398-6.398C4.438,51.387,4,50.32,4,49.062
	s0.438-2.324,1.312-3.199l13.836-13.891L5.312,18.137C4.438,17.262,4,16.195,4,14.938s0.438-2.324,1.312-3.199l6.398-6.398
	c0.875-0.875,1.941-1.312,3.199-1.312s2.324,0.438,3.199,1.312L32,19.176L45.836,5.34c0.875-0.875,1.941-1.312,3.199-1.312
	s2.324,0.438,3.199,1.312l6.398,6.398c0.875,0.875,1.312,1.941,1.312,3.199s-0.438,2.324-1.312,3.199L44.797,31.973l13.836,13.891
	c0.875,0.875,1.331,1.95,1.367,3.227C59.964,50.329,59.508,51.387,58.633,52.262z"/>
<path display="none" d="M19.258,32.027v3.828c0,1.058-0.374,1.95-1.121,2.68s-1.65,1.094-2.707,1.094H7.773
	c-1.057,0-1.951-0.364-2.68-1.094S4,36.913,4,35.855v-7.656c0-1.057,0.365-1.959,1.094-2.707s1.623-1.121,2.68-1.121h7.656
	c1.057,0,1.959,0.374,2.707,1.121s1.121,1.65,1.121,2.707C19.258,28.527,19.258,29.803,19.258,32.027z M39.602,32.027v3.828
	c0,1.058-0.374,1.95-1.121,2.68s-1.649,1.094-2.707,1.094h-7.602c-1.057,0-1.959-0.364-2.707-1.094s-1.121-1.622-1.121-2.68v-7.656
	c0-1.057,0.374-1.959,1.121-2.707s1.65-1.121,2.707-1.121h7.602c1.058,0,1.96,0.374,2.707,1.121s1.121,1.65,1.121,2.707
	C39.602,28.527,39.602,29.803,39.602,32.027z M60,32.027v3.828c-0.036,1.058-0.419,1.95-1.148,2.68s-1.622,1.094-2.68,1.094h-7.656
	c-1.058,0-1.96-0.364-2.707-1.094s-1.121-1.622-1.121-2.68v-7.656c0-1.057,0.374-1.959,1.121-2.707s1.649-1.121,2.707-1.121h7.656
	c1.058,0,1.95,0.374,2.68,1.121s1.112,1.65,1.148,2.707C60,28.527,60,29.803,60,32.027z"/>
<path display="none" d="M54.887,44.715v11.484c0,1.058-0.364,1.95-1.094,2.68s-1.641,1.094-2.734,1.094H12.887
	c-1.057,0-1.951-0.364-2.68-1.094s-1.094-1.622-1.094-2.68V33.285c0-1.057,0.365-1.959,1.094-2.707s1.623-1.121,2.68-1.121h1.312
	v-7.656c0-4.885,1.75-9.069,5.25-12.551S27.133,4.027,32,4.027s9.051,1.741,12.551,5.223s5.25,7.666,5.25,12.551v7.656h1.258
	c1.094,0,2.005,0.374,2.734,1.121s1.094,1.65,1.094,2.707C54.887,34.233,54.887,38.043,54.887,44.715z M21.801,29.457
	c0.838,0,4.229,0,10.172,0h10.227v-7.656c0-2.807-0.993-5.205-2.98-7.191s-4.394-2.98-7.219-2.98c-2.826,0-5.232,0.994-7.219,2.98
	s-2.98,4.384-2.98,7.191V29.457z"/>
<path display="none" d="M56.254,46.055c-2.497,4.302-5.897,7.702-10.199,10.199S37.067,60,32,60c-5.068,0-9.752-1.249-14.055-3.746
	s-7.702-5.897-10.199-10.199S4,37.067,4,32c0-5.068,1.249-9.752,3.746-14.055s5.897-7.702,10.199-10.199S26.932,4,32,4
	c5.067,0,9.753,1.249,14.055,3.746s7.702,5.897,10.199,10.199S60,26.932,60,32C60,37.067,58.751,41.753,56.254,46.055z M48.352,32
	v-2.352c0-0.62-0.237-1.158-0.711-1.613S46.62,27.352,46,27.352H18c-0.62,0-1.167,0.228-1.641,0.684s-0.711,0.994-0.711,1.613v4.703
	c0,0.62,0.237,1.157,0.711,1.613S17.38,36.648,18,36.648h28c0.62,0,1.167-0.228,1.641-0.684s0.711-0.993,0.711-1.613
	C48.352,34.133,48.352,33.349,48.352,32z"/>
<path display="none" d="M59.07,38.098c-1.567,6.526-4.831,11.804-9.789,15.832s-10.773,6.043-17.445,6.043
	c-3.537,0.036-6.963-0.62-10.281-1.969s-6.271-3.263-8.859-5.742l-4.703,4.703c-0.474,0.474-1.03,0.711-1.668,0.711
	s-1.185-0.228-1.641-0.684S4,55.98,4,55.324V39.027c0-0.656,0.228-1.212,0.684-1.668s1.012-0.684,1.668-0.684h16.297
	c0.656,0,1.212,0.228,1.668,0.684S25,38.362,25,39s-0.237,1.194-0.711,1.668l-4.977,4.977c1.713,1.604,3.664,2.844,5.852,3.719
	S29.63,50.676,32,50.676c3.245,0,6.28-0.793,9.105-2.379s5.095-3.765,6.809-6.535c0.255-0.401,0.894-1.823,1.914-4.266
	c0.183-0.547,0.547-0.82,1.094-0.82h7c0.328,0,0.602,0.118,0.82,0.355s0.328,0.501,0.328,0.793
	C59.07,37.97,59.07,38.062,59.07,38.098z M60,16.824v8.203c0,0.62-0.228,1.158-0.684,1.613s-1.012,0.684-1.668,0.684H41.352
	c-0.656,0-1.212-0.228-1.668-0.684S39,25.638,39,25s0.237-1.176,0.711-1.613l5.031-5.031c-3.609-3.354-7.856-5.031-12.742-5.031
	c-3.245,0-6.28,0.793-9.105,2.379s-5.095,3.764-6.809,6.535c-0.255,0.401-0.893,1.823-1.914,4.266
	c-0.182,0.547-0.547,0.82-1.094,0.82H5.805c-0.292,0-0.556-0.109-0.793-0.328s-0.355-0.492-0.355-0.82v-0.273
	c1.568-6.49,4.849-11.758,9.844-15.805s10.828-6.07,17.5-6.07c3.536,0,6.981,0.674,10.336,2.023s6.344,3.245,8.969,5.688
	l4.703-4.703c0.474-0.474,1.03-0.711,1.668-0.711s1.185,0.237,1.641,0.711S60,8.056,60,8.676C60,9.369,60,12.084,60,16.824z"/>
<path display="none" d="M60.496,47.066c-1.003,1.203-2.379,1.805-4.129,1.805c-0.948,0-1.832-0.191-2.652-0.574
	s-1.477-0.812-1.969-1.285s-1.121-0.902-1.887-1.285s-1.567-0.574-2.406-0.574c-2.479,0-3.719,1.386-3.719,4.156
	c0,0.875,0.183,2.169,0.547,3.883s0.547,3.008,0.547,3.883v0.164c-0.511,0-0.894,0-1.148,0c-0.766,0.073-1.859,0.21-3.281,0.41
	s-2.716,0.355-3.883,0.465s-2.26,0.164-3.281,0.164c-1.385,0-2.543-0.301-3.473-0.902s-1.395-1.54-1.395-2.816
	c0-0.839,0.191-1.641,0.574-2.406s0.802-1.395,1.258-1.887s0.884-1.148,1.285-1.969s0.602-1.687,0.602-2.598
	c0-1.786-0.602-3.181-1.805-4.184s-2.734-1.504-4.594-1.504s-3.455,0.511-4.785,1.531s-1.996,2.461-1.996,4.32
	c0,0.948,0.173,1.868,0.52,2.762s0.729,1.622,1.148,2.188s0.793,1.167,1.121,1.805s0.492,1.194,0.492,1.668
	c0,1.021-0.51,2.023-1.531,3.008c-0.838,0.802-2.151,1.185-3.938,1.148c-2.151,0.036-4.904-0.219-8.258-0.766
	c-0.219-0.073-0.529-0.128-0.93-0.164s-0.711-0.073-0.93-0.109l-0.547-0.109C6.018,57.293,6,57.274,6,57.238V22.785
	c0.037,0.037,0.237,0.073,0.602,0.109l1.148,0.164c0.401,0.073,0.638,0.127,0.711,0.164c3.354,0.51,6.107,0.766,8.258,0.766
	c1.787,0,3.099-0.383,3.938-1.148c1.021-0.984,1.531-1.987,1.531-3.008c0-0.51-0.164-1.084-0.492-1.723s-0.702-1.23-1.121-1.777
	s-0.802-1.267-1.148-2.16c-0.346-0.896-0.52-1.816-0.52-2.764c0-1.859,0.666-3.299,1.996-4.32c1.331-1.021,2.944-1.531,4.84-1.531
	c1.787,0,3.291,0.501,4.512,1.504c1.221,1.003,1.832,2.379,1.832,4.129c0,0.948-0.201,1.832-0.602,2.652
	c-0.401,0.823-0.83,1.479-1.285,1.971s-0.875,1.121-1.258,1.887s-0.574,1.568-0.574,2.406c0,1.276,0.465,2.215,1.395,2.816
	s2.096,0.902,3.5,0.902c1.404,0,3.409-0.173,6.016-0.52s4.438-0.538,5.496-0.574v0.055c-0.036,0.037-0.073,0.237-0.109,0.602
	L44.5,24.535c-0.073,0.401-0.128,0.638-0.164,0.711c-0.511,3.354-0.766,6.107-0.766,8.258c0,1.786,0.383,3.099,1.148,3.938
	c0.984,1.021,1.987,1.531,3.008,1.531c0.511,0,1.085-0.164,1.723-0.492s1.23-0.702,1.777-1.121s1.267-0.802,2.16-1.148
	s1.813-0.52,2.762-0.52c1.859,0,3.3,0.665,4.32,1.996S62,40.632,62,42.527C62,44.351,61.499,45.863,60.496,47.066z"/>
<path display="none" d="M60,39.602V56.5c0,0.984-0.337,1.813-1.012,2.488S57.484,60,56.5,60h-49c-0.984,0-1.814-0.337-2.488-1.012
	S4,57.484,4,56.5v-49c0-0.984,0.337-1.814,1.012-2.488S6.516,4,7.5,4h33.852c0.948,0,2.005,0.246,3.172,0.738
	s2.097,1.066,2.789,1.723l10.227,10.227c0.656,0.693,1.23,1.623,1.723,2.789S60,21.701,60,22.648C60,24.07,60,29.721,60,39.602z
	 M50.648,55.352c0.219,0,1.003,0,2.352,0h2.352V22.648c0-0.328-0.128-0.793-0.383-1.395s-0.492-1.012-0.711-1.23L43.977,9.742
	c-0.219-0.219-0.62-0.456-1.203-0.711s-1.058-0.383-1.422-0.383v15.203c0,0.948-0.347,1.768-1.039,2.461s-1.513,1.039-2.461,1.039
	h-21c-0.984,0-1.814-0.346-2.488-1.039s-1.012-1.513-1.012-2.461V8.648H8.648v46.703h4.703V40.148c0-0.948,0.337-1.769,1.012-2.461
	s1.504-1.039,2.488-1.039h30.297c0.984,0,1.813,0.347,2.488,1.039s1.012,1.513,1.012,2.461V55.352z M32,55.352h14v-14H18v14
	C19.167,55.352,23.833,55.352,32,55.352z M36.648,15.648V9.852c0-0.328-0.109-0.611-0.328-0.848s-0.492-0.355-0.82-0.355h-7
	c-0.328,0-0.602,0.119-0.82,0.355s-0.328,0.52-0.328,0.848V21.5c0,0.328,0.109,0.602,0.328,0.82s0.492,0.328,0.82,0.328h7
	c0.328,0,0.602-0.109,0.82-0.328s0.328-0.492,0.328-0.82C36.648,21.026,36.648,19.076,36.648,15.648z"/>
<path display="none" d="M53,4c0.984,0.036,1.805,0.383,2.461,1.039S56.464,6.516,56.5,7.5v49c-0.036,0.984-0.383,1.805-1.039,2.461
	S53.984,59.964,53,60H11c-0.984-0.036-1.805-0.383-2.461-1.039S7.536,57.484,7.5,56.5v-49c0.036-0.984,0.383-1.805,1.039-2.461
	S10.016,4.036,11,4h21C44.25,4,51.25,4,53,4z M49.5,18v-7h-35v7H32C42.208,18,48.042,18,49.5,18z M21.5,32v-7h-7v7H18
	C20.042,32,21.208,32,21.5,32z M21.5,42.5v-7h-7v7H18C20.042,42.5,21.208,42.5,21.5,42.5z M21.5,53v-7h-7v7H18
	C20.042,53,21.208,53,21.5,53z M35.5,32v-7h-7v7H32C34.042,32,35.208,32,35.5,32z M35.5,42.5v-7h-7v7H32
	C34.042,42.5,35.208,42.5,35.5,42.5z M35.5,53v-7h-7v7H32C34.042,53,35.208,53,35.5,53z M49.5,32v-7h-7v7H46
	C48.042,32,49.208,32,49.5,32z M49.5,42.5v-7h-7v7H46C48.042,42.5,49.208,42.5,49.5,42.5z M49.5,53v-7h-7v7H46
	C48.042,53,49.208,53,49.5,53z"/>
<path display="none" d="M56.5,4c0.984,0.036,1.805,0.383,2.461,1.039S59.964,6.516,60,7.5v49c-0.036,0.984-0.383,1.805-1.039,2.461
	S57.484,59.964,56.5,60h-49c-0.984-0.036-1.805-0.383-2.461-1.039S4.036,57.484,4,56.5v-49c0.036-0.984,0.383-1.805,1.039-2.461
	S6.516,4.036,7.5,4H11v10.5h14V4h14v10.5h14V4h1.75C55.771,4,56.354,4,56.5,4z M53,53V21.5H11V53h21C44.25,53,51.25,53,53,53z
	 M21.5,4v7h-7V4H18C20.042,4,21.208,4,21.5,4z M25,28.5v7h-7v-7h3.5C23.542,28.5,24.708,28.5,25,28.5z M25,39v7h-7v-7h3.5
	C23.542,39,24.708,39,25,39z M35.5,28.5v7h-7v-7H32C34.042,28.5,35.208,28.5,35.5,28.5z M35.5,39v7h-7v-7H32
	C34.042,39,35.208,39,35.5,39z M46,28.5v7h-7v-7h3.5C44.542,28.5,45.708,28.5,46,28.5z M46,39v7h-7v-7h3.5
	C44.542,39,45.708,39,46,39z M49.5,4v7h-7V4H46C48.042,4,49.208,4,49.5,4z"/>
<path display="none" d="M56.5,14.5c0.984,0.036,1.805,0.383,2.461,1.039S59.964,17.016,60,18v3.5h-3.5v35
	c-0.036,0.984-0.383,1.805-1.039,2.461S53.984,59.964,53,60H11c-0.984-0.036-1.805-0.383-2.461-1.039S7.536,57.484,7.5,56.5v-35H4
	V18c0.036-0.984,0.383-1.805,1.039-2.461S6.516,14.536,7.5,14.5h14v-7c0.036-0.984,0.383-1.805,1.039-2.461S24.016,4.036,25,4h14
	c0.984,0.036,1.805,0.383,2.461,1.039S42.464,6.516,42.5,7.5v7h7C53.583,14.5,55.917,14.5,56.5,14.5z M49.5,53V21.5h-35V53H32
	C42.208,53,48.042,53,49.5,53z M21.5,46h7V28.5H25c-2.042,0-3.208,0-3.5,0V46z M28.5,11v3.5h7V11H32C29.958,11,28.792,11,28.5,11z
	 M35.5,46h7V28.5H39c-2.042,0-3.208,0-3.5,0V46z"/>
<g display="none">
	<defs>
		<rect id="SVGID_1_" x="7.833" y="4" width="48.333" height="56"/>
	</defs>
	<clipPath id="SVGID_2_" display="inline">
		<use xlink:href="#SVGID_1_"  display="none" overflow="visible"/>
	</clipPath>
	<path clip-path="url(#SVGID_2_)" d="M41.963,21.609l-3.496-3.496L20.976,35.6c-2.898,2.896-2.898,7.595,0,10.493
		c2.898,2.894,7.597,2.894,10.495,0l20.988-20.988c4.83-4.824,4.83-12.654,0-17.482c-4.83-4.829-12.662-4.829-17.492,0
		L12.932,29.657c-0.013,0.017-0.033,0.029-0.046,0.042c-6.735,6.739-6.735,17.655,0,24.389c6.735,6.731,17.655,6.731,24.391,0
		c0.016-0.016,0.029-0.027,0.045-0.046l15.045-15.038l-3.5-3.496L33.822,50.547c-0.016,0.014-0.029,0.03-0.045,0.041
		c-4.796,4.797-12.6,4.797-17.395,0c-4.796-4.79-4.796-12.594,0-17.389c0.017-0.018,0.033-0.029,0.05-0.043l-0.004-0.004
		l22.039-22.035c2.891-2.895,7.598-2.895,10.492,0c2.895,2.894,2.895,7.602,0,10.491L27.971,42.593c-0.967,0.968-2.532,0.968-3.5,0
		c-0.963-0.964-0.963-2.532,0-3.497L41.963,21.609z M41.963,21.609"/>
</g>
<path display="none" d="M56.254,46.055c-2.497,4.284-5.897,7.675-10.199,10.172S37.067,59.973,32,59.973s-9.752-1.249-14.055-3.746
	s-7.702-5.888-10.199-10.172S4,37.086,4,32s1.249-9.771,3.746-14.055s5.897-7.674,10.199-10.172S26.933,4.027,32,4.027
	s9.753,1.249,14.055,3.746s7.702,5.888,10.199,10.172S60,26.905,60,31.973C60,37.077,58.751,41.771,56.254,46.055z M48.352,31.973
	v-2.297c0-0.62-0.237-1.167-0.711-1.641S46.62,27.324,46,27.324h-9.352v-9.352c0-0.62-0.228-1.158-0.684-1.613
	s-0.993-0.684-1.613-0.684h-4.703c-0.62,0-1.157,0.228-1.613,0.684s-0.684,0.994-0.684,1.613v9.352H18
	c-0.62,0-1.167,0.228-1.641,0.684s-0.711,1.012-0.711,1.668v4.648c0,0.619,0.237,1.166,0.711,1.641
	c0.474,0.474,1.021,0.711,1.641,0.711h9.352v9.297c0,0.656,0.228,1.212,0.684,1.668s0.993,0.684,1.613,0.684h4.703
	c0.62,0,1.157-0.228,1.613-0.684s0.684-1.012,0.684-1.668v-9.297H46c0.62,0,1.167-0.228,1.641-0.684
	c0.474-0.455,0.711-1.012,0.711-1.668C48.352,34.143,48.352,33.357,48.352,31.973z"/>
<path display="none" d="M51.773,27.705v2.406H27c-1.896,0-3.865,0.474-5.906,1.422c-2.042,0.948-3.664,2.133-4.867,3.555
	L6.055,47.064L6,17.697c0-1.823,0.656-3.391,1.969-4.703s2.88-1.969,4.703-1.969h9.516c1.859,0,3.436,0.656,4.73,1.969
	c1.294,1.312,1.96,2.88,1.996,4.703v0.984h16.188c1.823,0,3.391,0.656,4.703,1.969s1.969,2.88,1.969,4.703
	C51.773,25.536,51.773,26.319,51.773,27.705z M61.07,37.549l-10.008,11.81c-0.839,1.021-2.032,1.887-3.582,2.598
	s-2.98,1.049-4.293,1.012h-32.43c-0.656,0.037-1.249-0.082-1.777-0.355S8.188,51.901,8.188,51.3s0.31-1.248,0.93-1.941l10.008-11.81
	c0.838-1.021,2.033-1.878,3.582-2.57c1.549-0.693,2.98-1.039,4.293-1.039h32.43c0.656,0,1.249,0.127,1.777,0.383
	C61.735,34.577,62,34.996,62,35.58C62,36.199,61.69,36.855,61.07,37.549z"/>
<path display="none" d="M59.973,32.055v4.047c0,0.292-0.091,0.574-0.273,0.848s-0.419,0.429-0.711,0.465l-6.781,1.039
	c-0.438,1.312-0.911,2.425-1.422,3.336c0.875,1.203,2.188,2.88,3.938,5.031c0.219,0.292,0.328,0.593,0.328,0.902
	s-0.109,0.593-0.328,0.848c-0.656,0.875-1.859,2.179-3.609,3.91s-2.88,2.598-3.391,2.598c-0.292,0-0.62-0.109-0.984-0.328
	l-5.031-3.938c-1.058,0.547-2.151,1.003-3.281,1.367c-0.401,3.317-0.766,5.578-1.094,6.781C37.187,59.653,36.749,60,36.02,60h-8.094
	c-0.328,0-0.62-0.101-0.875-0.301s-0.401-0.465-0.438-0.793l-0.984-6.727c-1.203-0.364-2.297-0.802-3.281-1.312l-5.141,3.883
	c-0.255,0.219-0.556,0.328-0.902,0.328s-0.666-0.128-0.957-0.383c-3.062-2.771-5.068-4.812-6.016-6.125
	c-0.146-0.255-0.219-0.538-0.219-0.848s0.091-0.593,0.273-0.848c0.365-0.511,0.984-1.321,1.859-2.434s1.531-1.96,1.969-2.543
	c-0.656-1.239-1.148-2.442-1.477-3.609l-6.672-0.984c-0.328-0.073-0.583-0.237-0.766-0.492s-0.273-0.528-0.273-0.82v-8.094
	c0-0.292,0.091-0.574,0.273-0.848s0.401-0.428,0.656-0.465l6.781-1.039c0.365-1.13,0.838-2.242,1.422-3.336
	c-0.948-1.385-2.242-3.062-3.883-5.031c-0.255-0.292-0.383-0.574-0.383-0.848s0.109-0.574,0.328-0.902
	c0.656-0.875,1.859-2.178,3.609-3.91s2.898-2.598,3.445-2.598c0.328,0,0.638,0.127,0.93,0.383l5.031,3.883
	c1.094-0.547,2.206-1.002,3.336-1.367c0.401-3.318,0.747-5.578,1.039-6.781C26.796,4.346,27.233,4,27.926,4h8.094
	c0.364,0,0.675,0.1,0.93,0.301s0.383,0.465,0.383,0.793l1.039,6.727c1.203,0.365,2.297,0.802,3.281,1.312l5.195-3.883
	c0.219-0.219,0.492-0.328,0.82-0.328s0.638,0.127,0.93,0.383c3.136,2.88,5.141,4.94,6.016,6.18c0.183,0.182,0.273,0.438,0.273,0.766
	s-0.091,0.62-0.273,0.875c-0.364,0.51-0.984,1.322-1.859,2.434s-1.531,1.959-1.969,2.543c0.62,1.24,1.112,2.443,1.477,3.609
	l6.672,0.984c0.328,0.073,0.583,0.237,0.766,0.492s0.273,0.529,0.273,0.82C59.973,28.373,59.973,29.721,59.973,32.055z
	 M38.59,25.383c-1.823-1.823-4.02-2.734-6.59-2.734s-4.767,0.912-6.59,2.734c-1.823,1.823-2.734,4.029-2.734,6.617
	c0,2.588,0.912,4.794,2.734,6.617c1.823,1.823,4.02,2.734,6.59,2.734s4.767-0.911,6.59-2.734s2.734-4.029,2.734-6.617
	C41.324,29.412,40.413,27.206,38.59,25.383z"/>
<path display="none" d="M50.758,42.145c-0.419,0.419-0.921,0.629-1.504,0.629H34.816l-1.75,16.242
	c-0.036,0.292-0.155,0.528-0.355,0.711S32.282,60,32.027,60h-0.055c-0.583,0-0.93-0.31-1.039-0.93l-2.57-16.297H14.746
	c-0.583,0-1.084-0.21-1.504-0.629s-0.629-0.921-0.629-1.504c0-2.771,0.884-5.26,2.652-7.465c1.768-2.206,3.764-3.309,5.988-3.309
	V12.641c-1.167,0-2.178-0.428-3.035-1.285s-1.285-1.869-1.285-3.035s0.428-2.178,1.285-3.035S20.087,4,21.254,4h21.492
	c1.167,0,2.179,0.428,3.035,1.285s1.285,1.869,1.285,3.035s-0.429,2.178-1.285,3.035s-1.868,1.285-3.035,1.285v17.227
	c2.224,0,4.22,1.103,5.988,3.309c1.769,2.205,2.652,4.694,2.652,7.465C51.387,41.224,51.177,41.726,50.758,42.145z M28.746,21.227
	V13.68c0-0.292-0.101-0.538-0.301-0.738s-0.456-0.301-0.766-0.301s-0.565,0.1-0.766,0.301s-0.301,0.447-0.301,0.738v15.094
	c0,0.328,0.101,0.592,0.301,0.793s0.456,0.301,0.766,0.301s0.565-0.1,0.766-0.301s0.301-0.465,0.301-0.793
	C28.746,28.154,28.746,25.638,28.746,21.227z"/>
<path display="none" d="M11.93,17.973c-0.292,0.036-0.602,0.055-0.93,0.055c-1.969-0.073-3.618-0.766-4.949-2.078
	S4.036,12.996,4,11.027c0.036-2.005,0.72-3.664,2.051-4.977S9.031,4.063,11,4.027c1.969,0.036,3.618,0.711,4.949,2.023
	S17.964,9.022,18,11.027c0,0.292-0.019,0.602-0.055,0.93C15.575,13.598,13.57,15.603,11.93,17.973z M53,32.027
	c-0.036,3.683-0.894,7.036-2.57,10.062s-3.938,5.487-6.781,7.383l5.852,5.852l-4.648,4.648l-7.656-7.602
	c-1.677,0.438-3.409,0.656-5.195,0.656s-3.519-0.219-5.195-0.656l-7.656,7.602L14.5,55.324l5.852-5.852
	c-2.844-1.896-5.104-4.356-6.781-7.383S11.036,35.71,11,32.027c0.146-5.942,2.196-10.892,6.152-14.848S26.058,11.173,32,11.027
	c5.942,0.146,10.892,2.196,14.848,6.152S52.854,26.085,53,32.027z M32,46.027c3.974-0.109,7.273-1.485,9.898-4.129
	s3.992-5.934,4.102-9.871c-0.109-3.974-1.477-7.282-4.102-9.926S35.974,18.101,32,18.027c-3.974,0.073-7.273,1.431-9.898,4.074
	S18.109,28.054,18,32.027c0.109,3.938,1.477,7.228,4.102,9.871S28.026,45.918,32,46.027z M39,28.527v7H28.5v-14h7v3.5
	c0,2.042,0,3.208,0,3.5H39z M53,4.027c1.969,0.036,3.618,0.711,4.949,2.023S59.964,9.022,60,11.027
	c-0.036,1.969-0.72,3.609-2.051,4.922s-2.98,2.005-4.949,2.078c-0.328,0-0.638-0.019-0.93-0.055
	c-1.641-2.37-3.646-4.375-6.016-6.016C46.019,11.629,46,11.319,46,11.027c0.036-2.005,0.72-3.664,2.051-4.977S51.031,4.063,53,4.027
	z"/>
<path display="none" d="M56.5,4c0.984,0.036,1.805,0.383,2.461,1.039S59.964,6.516,60,7.5V46c-0.036,0.984-0.383,1.805-1.039,2.461
	S57.484,49.464,56.5,49.5H30.25L14.5,60V49.5h-7c-0.984-0.036-1.805-0.383-2.461-1.039S4.036,46.984,4,46V7.5
	c0.036-0.984,0.383-1.805,1.039-2.461S6.516,4.036,7.5,4H32C46.292,4,54.458,4,56.5,4z M53,42.5V11H11v31.5h10.5v5.25l8.75-5.25
	h11.375C48.261,42.5,52.052,42.5,53,42.5z M18,25h28v-7H32c-8.167,0-12.833,0-14,0V25z M18,35.5h28v-7H32c-8.167,0-12.833,0-14,0
	V35.5z"/>
<path display="none" d="M43.867,32.002c7.532-4.776,12.634-13.958,12.634-24.503c0-1.183-0.068-2.354-0.192-3.499H7.691
	C7.564,5.146,7.499,6.316,7.499,7.499c0,10.545,5.102,19.727,12.634,24.503C12.601,36.774,7.499,45.956,7.499,56.501
	c0,1.188,0.065,2.354,0.188,3.499h48.622c0.124-1.146,0.192-2.312,0.192-3.499C56.501,45.956,51.399,36.774,43.867,32.002
	L43.867,32.002z M12.75,56.501c0-10.22,4.384-18.889,12.25-21.752V29.25c-7.865-2.862-12.25-11.531-12.25-21.751h38.5
	c0,10.22-4.384,18.89-12.249,21.751v5.499c7.865,2.863,12.249,11.532,12.249,21.752H12.75z M37.886,40.62
	c-3.918-2.222-4.136-5.106-4.136-6.857V30.25c0-1.748,0.209-4.644,4.144-6.87c2.103-1.227,3.927-3.085,5.307-5.379H20.8
	c1.384,2.298,3.204,4.157,5.315,5.383c3.918,2.222,4.135,5.106,4.135,6.853v3.512c0,1.751-0.21,4.644-4.144,6.874
	c-3.97,2.308-6.931,6.871-7.824,12.378h27.434C44.824,47.495,41.858,42.923,37.886,40.62L37.886,40.62z M37.886,40.62"/>
<path display="none" d="M12.176,51.824C6.907,46.556,4.183,39.948,4,32c0.183-7.948,2.907-14.556,8.176-19.824S24.052,4.183,32,4
	c7.948,0.183,14.556,2.907,19.824,8.176S59.817,24.052,60,32c-0.183,7.948-2.907,14.556-8.176,19.824S39.948,59.817,32,60
	C24.052,59.817,17.444,57.093,12.176,51.824z M17.152,17.152C13.196,21.108,11.146,26.058,11,32
	c0.146,5.942,2.196,10.892,6.152,14.848S26.058,52.854,32,53c5.942-0.146,10.892-2.196,14.848-6.152S52.854,37.942,53,32
	c-0.146-5.942-2.196-10.892-6.152-14.848S37.942,11.146,32,11C26.058,11.146,21.108,13.196,17.152,17.152z M32,25h7v14H25V25
	C25.583,25,27.917,25,32,25z"/>
<path display="none" d="M45.781,30.852c4.302,1.531,7.729,3.618,10.281,6.262S59.927,42.719,60,46v10.5
	c-0.036,0.984-0.383,1.805-1.039,2.461S57.484,59.964,56.5,60h-49c-0.984-0.036-1.805-0.383-2.461-1.039S4.036,57.484,4,56.5V46
	c0.073-3.281,1.386-6.243,3.938-8.887s5.979-4.73,10.281-6.262C18.073,30.086,18,29.302,18,28.5V18
	c0.109-3.974,1.477-7.273,4.102-9.898S28.026,4.109,32,4c3.974,0.109,7.273,1.477,9.898,4.102S45.891,14.026,46,18v10.5
	C46,29.302,45.927,30.086,45.781,30.852z M53,53v-7c-0.036-1.896-0.957-3.618-2.762-5.168s-4.22-2.798-7.246-3.746
	c-1.312,1.641-2.907,2.944-4.785,3.91S34.261,42.445,32,42.445s-4.329-0.483-6.207-1.449s-3.473-2.27-4.785-3.91
	c-3.026,0.948-5.441,2.196-7.246,3.746S11.036,44.104,11,46v7h21C44.25,53,51.25,53,53,53z M25,18v10.5
	c0.036,1.969,0.72,3.618,2.051,4.949S30.031,35.464,32,35.5c1.969-0.036,3.618-0.72,4.949-2.051S38.964,30.469,39,28.5V18
	c-0.036-1.969-0.72-3.618-2.051-4.949S33.969,11.036,32,11c-1.969,0.036-3.618,0.72-4.949,2.051S25.036,16.031,25,18z"/>
<path display="none" d="M60,41.16v7c0,0.292-0.109,0.547-0.328,0.766s-0.474,0.328-0.766,0.328h-7.547v5.359
	c0,0.911-0.31,1.677-0.93,2.297s-1.386,0.93-2.297,0.93H15.867c-0.912,0-1.677-0.31-2.297-0.93s-0.93-1.386-0.93-2.297v-5.359H5.094
	c-0.292,0-0.547-0.109-0.766-0.328S4,48.452,4,48.16v-14c0-1.75,0.638-3.263,1.914-4.539s2.789-1.914,4.539-1.914h2.188V9.387
	c0-0.875,0.31-1.631,0.93-2.27s1.385-0.957,2.297-0.957h22.586c0.911,0,1.905,0.228,2.98,0.684s1.923,0.994,2.543,1.613l5.141,5.141
	c0.62,0.62,1.148,1.467,1.586,2.543s0.656,2.069,0.656,2.98v8.586h2.188c1.75,0,3.263,0.638,4.539,1.914S60,32.41,60,34.16
	C60,34.743,60,37.077,60,41.16z M32,32.027h15.094V19.121H41.68c-0.875,0-1.632-0.319-2.27-0.957s-0.957-1.395-0.957-2.27V10.48
	H16.906v21.547C18.182,32.027,23.213,32.027,32,32.027z M32,53.574h15.094v-8.641H16.906v8.641
	C18.182,53.574,23.213,53.574,32,53.574z M55.051,32.656c-0.419-0.419-0.921-0.629-1.504-0.629s-1.094,0.209-1.531,0.629
	c-0.438,0.419-0.656,0.921-0.656,1.504s0.219,1.094,0.656,1.531s0.948,0.656,1.531,0.656s1.085-0.219,1.504-0.656
	s0.629-0.948,0.629-1.531S55.47,33.075,55.051,32.656z"/>
<path display="none" d="M51.413,54.069l0.656,3.17c0.073,0.291,0.037,0.583-0.109,0.875c-0.146,0.291-0.364,0.492-0.656,0.602
	h-0.219c-0.108,0.072-0.254,0.127-0.437,0.164l-0.602,0.163c-0.255,0.072-0.547,0.146-0.875,0.219l-2.186,0.383l-1.367,0.219
	c-0.438,0.036-0.91,0.072-1.421,0.109c-0.51,0.036-1.021,0.036-1.53,0c-6.194,0-11.615-1.722-16.261-5.165
	c-4.646-3.444-7.808-8.1-9.484-13.966h-3.771c-0.328,0-0.62-0.128-0.875-0.383c-0.255-0.256-0.383-0.547-0.383-0.875v-4.482
	c0-0.364,0.127-0.674,0.383-0.929c0.254-0.256,0.546-0.383,0.875-0.383h2.624c-0.037-1.494-0.019-2.879,0.055-4.155h-2.678
	c-0.365,0-0.665-0.119-0.902-0.355c-0.237-0.237-0.355-0.538-0.355-0.902v-4.537c0-0.4,0.118-0.72,0.355-0.957
	c0.237-0.237,0.537-0.355,0.902-0.355h3.936c1.749-5.539,4.965-10.012,9.647-13.419C31.417,5.703,36.729,4,42.668,4
	c2.696,0,5.266,0.31,7.707,0.929c0.292,0.073,0.547,0.273,0.765,0.601c0.183,0.292,0.237,0.62,0.164,0.984L49.555,12.8
	c-0.072,0.365-0.255,0.629-0.547,0.792c-0.29,0.164-0.601,0.191-0.929,0.082l-2.241-0.382c-0.583-0.109-0.919-0.155-1.011-0.137
	c-0.091,0.018-0.474-0.018-1.148-0.109c-0.673-0.091-1.065-0.1-1.175-0.027c-3.353,0-6.35,0.847-8.992,2.542
	c-2.642,1.695-4.618,4.018-5.93,6.969h18.584c0.401,0,0.729,0.164,0.983,0.492c0.256,0.328,0.347,0.674,0.273,1.039l-0.929,4.537
	c-0.146,0.693-0.583,1.039-1.312,1.039H25.833c-0.109,0.984-0.109,2.369,0,4.155h18.202c0.401,0,0.729,0.164,0.983,0.492
	c0.256,0.328,0.347,0.674,0.273,1.038l-0.983,4.482c-0.036,0.291-0.173,0.537-0.41,0.738c-0.236,0.2-0.501,0.301-0.793,0.301H27.691
	c1.275,3.097,3.261,5.557,5.958,7.379c2.697,1.821,5.722,2.715,9.074,2.679c0.474,0,0.947-0.019,1.421-0.055l1.366-0.109
	l1.148-0.164l1.749-0.383l0.655-0.219c0.328-0.146,0.656-0.119,0.984,0.082c0.328,0.2,0.547,0.482,0.656,0.848
	C50.74,51.153,50.977,52.211,51.413,54.069z"/>
<path display="none" d="M26.914,4.013H40.91c0.327,0,0.619,0.127,0.874,0.383c0.255,0.255,0.383,0.564,0.383,0.929v34.327h7.652
	c1.058,0,1.822,0.482,2.296,1.448s0.347,1.887-0.383,2.761l-12.736,15.25c-0.473,0.583-1.12,0.875-1.94,0.875
	c-0.821,0-1.469-0.292-1.942-0.875l-12.681-15.25c-0.692-0.839-0.811-1.749-0.355-2.733c0.456-0.983,1.212-1.476,2.269-1.476h7.652
	V14.18H19.262c-0.364,0-0.692-0.146-0.984-0.438l-6.341-7.598c-0.364-0.401-0.428-0.856-0.191-1.367
	c0.237-0.51,0.629-0.765,1.175-0.765C14.087,4.013,18.751,4.013,26.914,4.013z"/>
<path display="none" d="M32,25.003h26.237c0.511,0,0.929,0.164,1.257,0.492c0.328,0.328,0.492,0.747,0.492,1.257v10.495
	c0,0.51-0.164,0.93-0.492,1.258s-0.746,0.491-1.257,0.491H5.763c-0.51,0-0.929-0.163-1.257-0.491
	c-0.328-0.328-0.492-0.748-0.492-1.258V26.752c0-0.51,0.164-0.929,0.492-1.257c0.328-0.328,0.748-0.492,1.257-0.492
	C7.949,25.003,16.695,25.003,32,25.003z"/>
<path d="M43.971,14.043v1.968c0,0.546-0.191,1.021-0.574,1.421c-0.383,0.4-0.847,0.601-1.394,0.601H6.036
	c-0.546,0-1.021-0.201-1.421-0.601c-0.4-0.401-0.601-0.875-0.601-1.421v-3.99c0-0.546,0.201-1.021,0.601-1.421
	c0.401-0.4,0.875-0.601,1.421-0.601h35.967c0.547,0,1.011,0.201,1.394,0.601c0.383,0.401,0.574,0.875,0.574,1.421
	C43.971,12.203,43.971,12.877,43.971,14.043z M55.996,26.014v2.022c0,0.51-0.2,0.966-0.602,1.367c-0.4,0.4-0.874,0.601-1.421,0.601
	H6.036c-0.546,0-1.021-0.201-1.421-0.601c-0.4-0.401-0.601-0.857-0.601-1.367v-4.045c0-0.51,0.201-0.966,0.601-1.367
	c0.401-0.4,0.875-0.601,1.421-0.601h47.938c0.547,0,1.021,0.201,1.421,0.601c0.401,0.401,0.602,0.857,0.602,1.367
	C55.996,24.174,55.996,24.848,55.996,26.014z M48.016,37.985v2.022c0,0.547-0.2,1.02-0.602,1.421
	c-0.401,0.4-0.874,0.602-1.421,0.602H6.036c-0.546,0-1.021-0.201-1.421-0.602c-0.4-0.401-0.601-0.874-0.601-1.421v-3.99
	c0-0.547,0.201-1.021,0.601-1.421c0.401-0.401,0.875-0.602,1.421-0.602h39.957c0.547,0,1.02,0.2,1.421,0.602
	c0.401,0.399,0.602,0.874,0.602,1.421C48.016,36.163,48.016,36.819,48.016,37.985z M59.986,50.011v1.968
	c0,0.547-0.2,1.02-0.602,1.421c-0.4,0.4-0.874,0.602-1.421,0.602H6.036c-0.546,0-1.021-0.201-1.421-0.602
	c-0.4-0.401-0.601-0.874-0.601-1.421v-3.99c0-0.547,0.201-1.011,0.601-1.394c0.401-0.383,0.875-0.574,1.421-0.574h51.928
	c0.547,0,1.021,0.191,1.421,0.574c0.401,0.383,0.602,0.847,0.602,1.394C59.986,48.17,59.986,48.845,59.986,50.011z"/>
</svg>
